<svg width="28" height="27" viewBox="0 0 28 27" fill="none" xmlns="http://www.w3.org/2000/svg">
<g clip-path="url(#clip0_2534_4265)">
<path d="M14.048 20.8324C10.2592 20.8324 7.17773 17.7638 7.17773 13.9908C7.17773 10.2178 10.2592 7.14917 14.048 7.14917C17.8368 7.14917 20.9192 10.2178 20.9192 13.9908C20.9192 17.7638 17.8377 20.8324 14.048 20.8324ZM14.048 8.34248C10.9208 8.34248 8.37604 10.8757 8.37604 13.9908C8.37604 17.1059 10.9199 19.6391 14.048 19.6391C17.1762 19.6391 19.72 17.1059 19.72 13.9908C19.72 10.8757 17.1762 8.34248 14.048 8.34248Z" fill="#AD9170"/>
<path d="M8.70009 8.02868C8.87333 8.22712 8.85448 8.52656 8.65611 8.69997C8.45594 8.87338 8.15434 8.85282 7.982 8.65617L4.42927 4.61323C4.25603 4.4139 4.27668 4.11446 4.47325 3.94373C4.67162 3.77121 4.97412 3.78909 5.14736 3.98753L8.69919 8.02779L8.70009 8.02868Z" fill="#AD9170"/>
<path d="M14.5445 5.84318C14.5472 6.10508 14.3345 6.31961 14.0715 6.3214C13.8076 6.32318 13.5931 6.11313 13.5904 5.84854L13.5518 0.479113C13.55 0.21453 13.7627 0.00179058 14.0248 2.85424e-06C14.2896 -0.000891008 14.5032 0.208273 14.5059 0.472856L14.5436 5.84318H14.5445Z" fill="#AD9170"/>
<path d="M5.89122 12.6847C6.15512 12.7062 6.3481 12.9359 6.32836 13.1969C6.30682 13.4588 6.07792 13.6537 5.81313 13.6331L0.438251 13.1969C0.175252 13.1746 -0.0222223 12.9449 0.00201318 12.6847C0.0226582 12.4228 0.251548 12.2289 0.51724 12.2467L5.89122 12.6847Z" fill="#AD9170"/>
<path d="M6.7572 17.7727C6.98071 17.6314 7.27512 17.6985 7.41605 17.9202C7.55607 18.1409 7.49145 18.4359 7.26704 18.5763L2.70809 21.4456C2.48369 21.5868 2.18927 21.5206 2.05014 21.299C1.90832 21.0764 1.97474 20.7832 2.19915 20.6429L6.7572 17.7727Z" fill="#AD9170"/>
<path d="M10.8294 21.3114C10.9237 21.0647 11.1984 20.9413 11.4443 21.0334C11.6903 21.1264 11.815 21.399 11.7244 21.6466L9.82412 26.6719C9.72898 26.9177 9.45521 27.0419 9.21106 26.949C8.96062 26.856 8.83765 26.5834 8.9301 26.3367L10.8294 21.3114Z" fill="#AD9170"/>
<path d="M21.1289 18.7782C20.8946 18.6557 20.8049 18.3697 20.9287 18.1373C21.0499 17.9049 21.3389 17.8146 21.5732 17.938L26.3458 20.4363C26.5801 20.5606 26.6698 20.8475 26.546 21.0772C26.4239 21.3114 26.1358 21.399 25.9006 21.2783L21.1298 18.7782H21.1289Z" fill="#AD9170"/>
<path d="M22.2225 12.9834C21.9604 13.0138 21.7234 12.827 21.6929 12.5677C21.6615 12.3067 21.8482 12.069 22.1112 12.0395L27.4672 11.4156C27.7302 11.3861 27.9681 11.572 27.9959 11.8312C28.0282 12.094 27.8406 12.3291 27.5776 12.3613L22.2216 12.9834H22.2225Z" fill="#AD9170"/>
<path d="M18.7071 26.3653C18.7959 26.6129 18.6658 26.8847 18.4162 26.9732C18.1667 27.0581 17.8956 26.9303 17.8077 26.6827L16.0142 21.6163C15.9272 21.3695 16.0582 21.0969 16.3051 21.0111C16.5537 20.9235 16.8266 21.0522 16.9137 21.3007L18.7053 26.3653H18.7071Z" fill="#AD9170"/>
<path d="M19.5894 8.16005C19.426 8.36742 19.128 8.40497 18.9189 8.24407C18.7106 8.08228 18.6747 7.78463 18.8363 7.57725L22.1574 3.34302C22.3199 3.13654 22.6197 3.09811 22.8271 3.26079C23.0344 3.42168 23.0712 3.72113 22.9078 3.9294L19.5885 8.16005H19.5894Z" fill="#AD9170"/>
</g>
<defs>
<clipPath id="clip0_2534_4265">
<rect width="28" height="27" fill="white"/>
</clipPath>
</defs>
</svg>
