<svg width="442" height="443" viewBox="0 0 442 443" fill="none" xmlns="http://www.w3.org/2000/svg">
<path opacity="0.31" d="M221.184 291.759C291.909 291.759 349.243 234.396 349.243 163.634C349.243 92.8717 291.909 35.5078 221.184 35.5078C150.459 35.5078 93.125 92.8717 93.125 163.634C93.125 234.396 150.459 291.759 221.184 291.759Z" stroke="white" stroke-miterlimit="10"/>
<path opacity="0.14" d="M221.185 441.6C342.79 441.6 441.371 342.968 441.371 221.3C441.371 99.6317 342.79 1 221.185 1C99.5803 1 1 99.6317 1 221.3C1 342.968 99.5803 441.6 221.185 441.6Z" stroke="white" stroke-miterlimit="10"/>
<path d="M220.888 266C248.488 266 270.862 243.838 270.862 216.5C270.862 189.162 248.488 167 220.888 167C193.288 167 170.914 189.162 170.914 216.5C170.914 243.838 193.288 266 220.888 266Z" fill="#FFFEF8"/>
<path d="M194.904 198.296C195.534 198.296 196.12 198.424 196.664 198.68C197.219 198.925 197.662 199.299 197.992 199.8C198.334 200.291 198.504 200.888 198.504 201.592C198.504 202.296 198.328 202.92 197.976 203.464C197.624 204.008 197.15 204.429 196.552 204.728C195.955 205.027 195.31 205.176 194.616 205.176C193.742 205.176 192.979 204.968 192.328 204.552C191.688 204.136 191.187 203.587 190.824 202.904L192.008 202.056C192.328 202.547 192.691 202.931 193.096 203.208C193.512 203.485 194.003 203.624 194.568 203.624C195.198 203.624 195.72 203.443 196.136 203.08C196.552 202.717 196.76 202.232 196.76 201.624C196.76 201.027 196.547 200.568 196.12 200.248C195.704 199.917 195.107 199.752 194.328 199.752H191.896V194.44H197.912V195.96H193.56V198.44C193.976 198.344 194.424 198.296 194.904 198.296ZM204.29 205.176C203.394 205.176 202.642 204.931 202.034 204.44C201.436 203.949 200.988 203.288 200.69 202.456C200.402 201.613 200.258 200.669 200.258 199.624C200.258 198.024 200.599 196.733 201.282 195.752C201.964 194.76 202.967 194.264 204.29 194.264C205.612 194.264 206.61 194.755 207.282 195.736C207.964 196.717 208.306 198.013 208.306 199.624C208.306 200.669 208.162 201.613 207.874 202.456C207.586 203.288 207.138 203.949 206.53 204.44C205.932 204.931 205.186 205.176 204.29 205.176ZM204.29 203.624C205.068 203.624 205.639 203.272 206.002 202.568C206.364 201.864 206.546 200.888 206.546 199.64C206.546 197.091 205.794 195.816 204.29 195.816C202.775 195.816 202.018 197.091 202.018 199.64C202.018 200.888 202.199 201.864 202.562 202.568C202.935 203.272 203.511 203.624 204.29 203.624ZM225.126 194.264V205H223.43V198.376L220.406 202.344H219.83L216.79 198.36V205H215.094V194.264H215.686L220.118 200.168L224.55 194.264H225.126ZM236.614 194.264V205H234.918V197.624L228.374 205.176H227.782V194.44H229.478V201.8L236.022 194.264H236.614ZM239.266 194.44H240.962V198.648H246.274V194.44H247.97V205H246.274V200.168H240.962V205H239.266V194.44ZM198.499 220.132C197.747 220.132 197.055 219.952 196.423 219.592C195.799 219.232 195.303 218.74 194.935 218.116C194.575 217.484 194.395 216.792 194.395 216.04C194.395 215.28 194.575 214.588 194.935 213.964C195.303 213.34 195.799 212.848 196.423 212.488C197.055 212.128 197.747 211.948 198.499 211.948C199.243 211.948 199.931 212.128 200.563 212.488C201.195 212.848 201.695 213.34 202.063 213.964C202.431 214.588 202.615 215.28 202.615 216.04C202.615 216.8 202.431 217.492 202.063 218.116C201.695 218.74 201.195 219.232 200.563 219.592C199.931 219.952 199.243 220.132 198.499 220.132ZM198.511 219.268C199.095 219.268 199.627 219.128 200.107 218.848C200.587 218.56 200.963 218.172 201.235 217.684C201.507 217.188 201.643 216.636 201.643 216.028C201.643 215.428 201.507 214.884 201.235 214.396C200.963 213.9 200.587 213.512 200.107 213.232C199.627 212.952 199.095 212.812 198.511 212.812C197.919 212.812 197.383 212.952 196.903 213.232C196.423 213.512 196.047 213.896 195.775 214.384C195.503 214.872 195.367 215.42 195.367 216.028C195.367 216.636 195.503 217.188 195.775 217.684C196.047 218.172 196.423 218.56 196.903 218.848C197.383 219.128 197.919 219.268 198.511 219.268ZM205.995 212.92H203.211V212.08H209.727V212.92H206.931V220H205.995V212.92ZM221.097 211.948V220H220.161V214.324L217.629 217.756H217.293L214.749 214.3V220H213.813V211.948H214.149L217.449 216.52L220.773 211.948H221.097ZM223.282 212.08H224.218V220H223.282V212.08ZM229.414 220H228.226L224.326 215.752L227.89 212.08H229.09L225.55 215.752L229.414 220ZM235.7 218.392H231.812L231.14 220H230.156L233.588 211.948H233.936L237.368 220H236.372L235.7 218.392ZM233.756 213.652L232.172 217.552H235.34L233.756 213.652ZM245.481 219.16V221.692H244.545V220H238.797V221.692H237.861V219.16H238.473C238.897 218.768 239.209 218.096 239.409 217.144C239.609 216.184 239.709 214.828 239.709 213.076L239.721 212.08H244.521V219.16H245.481ZM240.573 212.92C240.565 214.592 240.473 215.936 240.297 216.952C240.121 217.968 239.861 218.704 239.517 219.16H243.585V212.92H240.573ZM186.421 227.08H187.357V230.344H191.797V227.08H192.733V235H191.797V231.184H187.357V235H186.421V227.08ZM199.741 233.392H195.853L195.181 235H194.197L197.629 226.948H197.977L201.409 235H200.413L199.741 233.392ZM197.797 228.652L196.213 232.552H199.381L197.797 228.652ZM212.923 226.948V235H211.987V229.324L209.455 232.756H209.119L206.575 229.3V235H205.639V226.948H205.975L209.275 231.52L212.599 226.948H212.923ZM219.932 233.392H216.044L215.372 235H214.388L217.82 226.948H218.168L221.6 235H220.604L219.932 233.392ZM217.988 228.652L216.404 232.552H219.572L217.988 228.652ZM223.065 227.08H224.001V234.16H227.289V227.08H228.225V234.16H231.525V227.08H232.461V235H223.065V227.08ZM241.064 226.948V235H240.128V228.856L234.968 235.132H234.632V227.08H235.568V233.224L240.728 226.948H241.064ZM243.245 227.08H244.181V230.344H248.621V227.08H249.557V235H248.621V231.184H244.181V235H243.245V227.08ZM251.741 227.08H256.817V227.92H252.677V230.344H255.845V231.184H252.677V234.16H256.961V235H251.741V227.08Z" fill="#917357"/>
</svg>
