<svg width="152" height="31" viewBox="0 0 152 31" fill="none" xmlns="http://www.w3.org/2000/svg">
<path d="M146.545 6.36523L141.377 12.1126V6.36523H137.637V20.8738H141.377V14.7655L146.909 20.8738H151.741L144.936 13.2719L151.248 6.36523H146.545Z" fill="#EF3124"/>
<path d="M131.044 11.7763H125.875V6.36523H122.133V20.8738H125.875V15.1533H131.044V20.8738H134.784V6.36523H131.044V11.7763Z" fill="#EF3124"/>
<mask id="mask0_1890_2029" style="mask-type:luminance" maskUnits="userSpaceOnUse" x="0" y="0" width="152" height="31">
<path d="M151.74 0.399414H0.261719V30.6007H151.74V0.399414Z" fill="white"/>
</mask>
<g mask="url(#mask0_1890_2029)">
<path d="M22.4673 14.225C22.3779 16.9316 22.0265 17.4721 20.4922 17.4721V20.8738H21.0639C24.8873 20.8738 25.8062 18.9141 25.9476 14.5592L26.1035 9.74019H29.6878V20.8738H33.4279V6.36523H22.7272L22.4673 14.225Z" fill="#EF3124"/>
<path d="M42.7299 10.7717H40.0292V6.36523H36.2891V20.8738H42.7819C46.861 20.8738 48.3142 18.2457 48.3142 15.7701C48.3142 12.5747 46.2871 10.7696 42.7299 10.7696M42.4451 17.6763H40.0292V13.9898H42.4451C43.7445 13.9898 44.522 14.5571 44.522 15.7681C44.522 17.0822 43.7694 17.6763 42.4451 17.6763Z" fill="#EF3124"/>
<path d="M60.4946 6.02889V0.642578H56.7545V6.02889C52.4696 6.38991 49.5859 9.40591 49.5859 13.606C49.5859 17.8062 52.4696 20.849 56.7545 21.21V26.6747H60.4946V21.21C64.7795 20.8758 67.6632 17.833 67.6632 13.606C67.6632 9.3791 64.7795 6.36309 60.4946 6.02889ZM56.7545 17.7051C54.6775 17.4204 53.3781 15.8753 53.3781 13.6081C53.3781 11.3409 54.6775 9.79374 56.7545 9.51112V17.7072V17.7051ZM60.4946 17.7051V9.50906C62.5716 9.79168 63.871 11.3389 63.871 13.606C63.871 15.8732 62.5716 17.4204 60.4946 17.703" fill="#EF3124"/>
<path d="M81.6885 16.4156V11.545C81.6885 7.9885 79.4036 5.74609 75.5595 5.74609C71.7153 5.74609 69.4825 8.11847 69.2995 10.5919H73.0917C73.2206 10.0514 73.7923 9.12311 75.5595 9.12311C77.0148 9.12311 77.9483 9.79357 77.9483 11.545H74.2331C70.9087 11.545 68.9336 13.2717 68.9336 16.1577C68.9336 19.0438 71.0937 21.2346 74.206 21.2346C76.4888 21.2346 77.757 20.1639 78.31 19.3532C78.8028 20.3331 79.8943 20.8736 81.3226 20.8736H82.622V17.5234C81.9463 17.5234 81.6864 17.2139 81.6864 16.4156M77.9462 15.4625C77.9462 17.1376 76.7508 18.0907 75.1936 18.0907C73.8422 18.0907 72.7777 17.6018 72.7777 16.1577C72.7777 14.7137 73.9462 14.5094 74.9586 14.5094H77.9462V15.4625Z" fill="#EF3124"/>
<path d="M97.7153 8.42602H93.5343V4.32904H103.223V0.642578H89.6133V20.8738H97.7174C102.21 20.8738 104.782 18.6582 104.782 14.5859C104.782 10.7468 102.21 8.42602 97.7174 8.42602M97.5365 17.2141H93.5364V11.9557H97.5365C99.6134 11.9557 100.784 12.9088 100.784 14.5839C100.784 16.259 99.6155 17.212 97.5365 17.212" fill="#EF3124"/>
<path d="M119.091 16.4156V11.545C119.091 7.9885 116.806 5.74609 112.962 5.74609C109.118 5.74609 106.885 8.11847 106.702 10.5919H110.494C110.623 10.0514 111.195 9.12311 112.962 9.12311C114.417 9.12311 115.351 9.79357 115.351 11.545H111.635C108.311 11.545 106.336 13.2717 106.336 16.1577C106.336 19.0438 108.496 21.2346 111.608 21.2346C113.891 21.2346 115.159 20.1639 115.712 19.3532C116.205 20.3331 117.297 20.8736 118.725 20.8736H120.024V17.5234C119.349 17.5234 119.089 17.2139 119.089 16.4156M115.349 15.4625C115.349 17.1376 114.153 18.0907 112.596 18.0907C111.245 18.0907 110.18 17.6018 110.18 16.1577C110.18 14.7137 111.348 14.5094 112.361 14.5094H115.349V15.4625Z" fill="#EF3124"/>
<path d="M20.262 26.4766H0.261719V30.6004H20.262V26.4766Z" fill="#EF3124"/>
<path d="M13.8964 3.41955C13.3246 1.73207 12.6677 0.399414 10.4161 0.399414C8.16447 0.399414 7.46383 1.72588 6.86507 3.41955L0.675781 20.874H4.7798L6.2081 16.7255H14.1043L15.4286 20.874H19.7925L13.8964 3.41955ZM7.40354 13.2205L10.2082 4.94818H10.3121L12.9608 13.2205H7.40146H7.40354Z" fill="#EF3124"/>
</g>
</svg>
