<svg width="39" height="32" viewBox="0 0 39 32" fill="none" xmlns="http://www.w3.org/2000/svg">
<g clip-path="url(#clip0_1633_12053)">
<path d="M1.19834 0H0.916992V0.924188H1.19834V0Z" fill="#AD9170"/>
<path d="M9.52353 0H9.24219V0.924188H9.52353V0Z" fill="#AD9170"/>
<path d="M3.41818 14.4239H7.02221C7.17694 14.4239 7.30355 14.3001 7.30355 14.1488V13.0294C7.30355 11.9071 6.36949 10.994 5.2216 10.994C4.07371 10.994 3.13965 11.9071 3.13965 13.0294V14.1488C3.13965 14.3001 3.26625 14.4239 3.42099 14.4239H3.41818ZM6.74086 13.0294V13.8738H5.50294V11.5688C6.20631 11.6981 6.74086 12.3032 6.74086 13.0294ZM3.69952 13.0294C3.69952 12.3032 4.23408 11.6981 4.93744 11.5688V13.8738H3.69952V13.0294Z" fill="#AD9170"/>
<path d="M7.02209 16.9874H3.41806C3.26332 16.9874 3.13672 17.1112 3.13672 17.2625V20.4834C3.13672 20.6347 3.26332 20.7584 3.41806 20.7584H7.02209C7.17683 20.7584 7.30343 20.6347 7.30343 20.4834V17.2625C7.30343 17.1112 7.17683 16.9874 7.02209 16.9874ZM3.69941 17.5375H4.93732V20.2083H3.69941V17.5375ZM6.74074 20.2083H5.50283V17.5375H6.74074V20.2083Z" fill="#AD9170"/>
<path d="M11.9933 20.7584H14.0752C14.2299 20.7584 14.3566 20.6347 14.3566 20.4834V17.2625C14.3566 17.1112 14.2299 16.9874 14.0752 16.9874H11.9933C11.8385 16.9874 11.7119 17.1112 11.7119 17.2625V20.4834C11.7119 20.6347 11.8385 20.7584 11.9933 20.7584ZM13.7939 20.2083H13.3156V17.5375H13.7939V20.2083ZM12.2746 17.5375H12.7529V20.2083H12.2746V17.5375Z" fill="#AD9170"/>
<path d="M11.9933 27.1342H14.0752C14.2299 27.1342 14.3566 27.0105 14.3566 26.8592V23.6383C14.3566 23.487 14.2299 23.3632 14.0752 23.3632H11.9933C11.8385 23.3632 11.7119 23.487 11.7119 23.6383V26.8592C11.7119 27.0105 11.8385 27.1342 11.9933 27.1342ZM13.7939 26.5841H13.3156V23.9133H13.7939V26.5841ZM12.2746 23.9133H12.7529V26.5841H12.2746V23.9133Z" fill="#AD9170"/>
<path d="M18.4591 20.7584H20.541C20.6958 20.7584 20.8224 20.6347 20.8224 20.4834V17.2625C20.8224 17.1112 20.6958 16.9874 20.541 16.9874H18.4591C18.3043 16.9874 18.1777 17.1112 18.1777 17.2625V20.4834C18.1777 20.6347 18.3043 20.7584 18.4591 20.7584ZM20.2597 20.2083H19.7814V17.5375H20.2597V20.2083ZM18.7404 17.5375H19.2187V20.2083H18.7404V17.5375Z" fill="#AD9170"/>
<path d="M18.4591 27.1342H20.541C20.6958 27.1342 20.8224 27.0105 20.8224 26.8592V23.6383C20.8224 23.487 20.6958 23.3632 20.541 23.3632H18.4591C18.3043 23.3632 18.1777 23.487 18.1777 23.6383V26.8592C18.1777 27.0105 18.3043 27.1342 18.4591 27.1342ZM20.2597 26.5841H19.7814V23.9133H20.2597V26.5841ZM18.7404 23.9133H19.2187V26.5841H18.7404V23.9133Z" fill="#AD9170"/>
<path d="M24.9269 20.7584H27.0088C27.1635 20.7584 27.2901 20.6347 27.2901 20.4834V17.2625C27.2901 17.1112 27.1635 16.9874 27.0088 16.9874H24.9269C24.7721 16.9874 24.6455 17.1112 24.6455 17.2625V20.4834C24.6455 20.6347 24.7721 20.7584 24.9269 20.7584ZM26.7275 20.2083H26.2492V17.5375H26.7275V20.2083ZM25.2082 17.5375H25.6865V20.2083H25.2082V17.5375Z" fill="#AD9170"/>
<path d="M24.9269 27.1342H27.0088C27.1635 27.1342 27.2901 27.0105 27.2901 26.8592V23.6383C27.2901 23.487 27.1635 23.3632 27.0088 23.3632H24.9269C24.7721 23.3632 24.6455 23.487 24.6455 23.6383V26.8592C24.6455 27.0105 24.7721 27.1342 24.9269 27.1342ZM26.7275 26.5841H26.2492V23.9133H26.7275V26.5841ZM25.2082 23.9133H25.6865V26.5841H25.2082V23.9133Z" fill="#AD9170"/>
<path d="M7.02209 23.3632H3.41806C3.26332 23.3632 3.13672 23.487 3.13672 23.6383V26.8592C3.13672 27.0105 3.26332 27.1342 3.41806 27.1342H7.02209C7.17683 27.1342 7.30343 27.0105 7.30343 26.8592V23.6383C7.30343 23.487 7.17683 23.3632 7.02209 23.3632ZM3.69941 23.9133H4.93732V26.5841H3.69941V23.9133ZM6.74074 26.5841H5.50283V23.9133H6.74074V26.5841Z" fill="#AD9170"/>
<path d="M4.16347 6.37577C4.11846 6.274 3.94965 6.274 3.90463 6.37577L3.15344 8.07561C3.13375 8.11687 3.13938 8.16638 3.1647 8.20489C3.19002 8.2434 3.23503 8.26815 3.28286 8.26815H4.78524C4.83307 8.26815 4.87809 8.24615 4.90341 8.20489C4.92873 8.16638 4.93436 8.11687 4.91466 8.07561L4.16347 6.37577ZM3.49668 7.99309L4.03405 6.77735L4.57142 7.99309H3.49668Z" fill="#AD9170"/>
<path d="M7.24181 8.07561L6.49062 6.37577C6.4456 6.274 6.2768 6.274 6.23178 6.37577L5.48059 8.07561C5.4609 8.11687 5.46653 8.16638 5.49185 8.20489C5.51717 8.2434 5.56218 8.26815 5.61001 8.26815H7.11239C7.16022 8.26815 7.20524 8.24615 7.23056 8.20489C7.25588 8.16638 7.2615 8.11687 7.24181 8.07561ZM5.82383 7.99309L6.3612 6.77735L6.89857 7.99309H5.82383Z" fill="#AD9170"/>
<path d="M38.7187 3.76276H38.0828V1.65033H37.8015V3.76276H37.1656C37.0109 3.76276 36.8843 3.88653 36.8843 4.03781V7.58053L35.6942 4.02406C35.6576 3.91129 35.5479 3.83427 35.4269 3.83427H32.1352C32.0142 3.83427 31.9045 3.91129 31.8679 4.02406L30.6778 7.58053V4.03781C30.6778 3.88653 30.5512 3.76276 30.3965 3.76276H29.7606V1.65033H29.4793V3.76276H28.8435C28.6887 3.76276 28.5621 3.88653 28.5621 4.03781V10.5786H10.4407V4.03781C10.4407 3.88653 10.3141 3.76276 10.1594 3.76276H9.52352V1.65033H9.24217V3.76276H8.60633C8.45159 3.76276 8.32499 3.88653 8.32499 4.03781V7.58053L7.1349 4.02406C7.09833 3.91129 6.9886 3.83427 6.86762 3.83427H3.57589C3.45491 3.83427 3.34519 3.91129 3.30861 4.02406L2.11853 7.58053V4.03781C2.11853 3.88653 1.99192 3.76276 1.83718 3.76276H1.20134V1.65033H0.919997V3.76276H0.281345C0.126605 3.76276 0 3.88653 0 4.03781V31.7249C0 31.8762 0.126605 32 0.281345 32H38.7187C38.8734 32 39 31.8762 39 31.7249V4.03781C39 3.88653 38.8734 3.76276 38.7187 3.76276ZM36.0149 29.9536H35.1456C34.9908 29.9536 34.8642 30.0774 34.8642 30.2286V31.4471H32.6922V30.2286C32.6922 30.0774 32.5656 29.9536 32.4109 29.9536H31.5416C31.3868 29.9536 31.2602 30.0774 31.2602 30.2286V31.4471H30.6722V28.5728H36.8815V31.4471H36.2963V30.2286C36.2963 30.0774 36.1697 29.9536 36.0149 29.9536ZM30.6722 15.956H36.8815V21.9219H30.6722V15.956ZM30.6722 22.197H36.8815V28.3005H30.6722V22.197ZM36.8815 15.4059H30.6722V9.57744H36.8815V15.4059ZM32.3349 4.38438H35.2187L36.7746 9.02733H30.7791L32.3349 4.38438ZM26.3986 29.9536H25.5292C25.3745 29.9536 25.2479 30.0774 25.2479 30.2286V31.4471H22.9099V28.5728H28.5565V31.4471H26.6799V30.2286C26.6799 30.0774 26.5533 29.9536 26.3986 29.9536ZM19.9305 29.9536H19.0611C18.9064 29.9536 18.7798 30.0774 18.7798 30.2286V31.4471H16.8188V15.956H22.004V28.2977H16.8329V28.5728H22.004V31.4471H20.209V30.2286C20.209 30.0774 20.0824 29.9536 19.9276 29.9536H19.9305ZM13.4652 29.9536H12.5958C12.4411 29.9536 12.3145 30.0774 12.3145 30.2286V31.4471H10.4379V28.5728H15.9185V31.4471H13.7465V30.2286C13.7465 30.0774 13.6199 29.9536 13.4652 29.9536ZM16.5403 15.4059H16.1998V13.8023L16.3714 13.3402L16.5374 13.7693V15.4059H16.5403ZM15.9185 28.2977H10.4379V15.956H15.9185V28.2977ZM16.1998 31.4471V15.956H16.5403V31.4471H16.1998ZM28.5565 28.2977H22.9099V15.956H28.5565V28.2977ZM22.6286 15.4059H22.2881V13.8023L22.4597 13.3402L22.6257 13.7693V15.4059H22.6286ZM22.2881 31.4471V15.956H22.6286V31.4471H22.2881ZM28.5565 11.126V15.4059H22.9099V13.7445C22.9099 13.728 22.9071 13.7115 22.9015 13.695L22.592 12.8974C22.5723 12.8451 22.5188 12.8093 22.4597 12.8093C22.4007 12.8093 22.35 12.8451 22.3275 12.9001L22.018 13.7308C22.0124 13.7445 22.0096 13.761 22.0096 13.7775V15.4059H16.8244V13.7445C16.8244 13.728 16.8216 13.7115 16.816 13.695L16.5065 12.8974C16.4868 12.8451 16.4333 12.8093 16.3743 12.8093C16.3152 12.8093 16.2645 12.8451 16.242 12.9001L15.9325 13.7308C15.9269 13.7473 15.9241 13.761 15.9241 13.7775V15.4059H10.4435V11.126H28.5621H28.5565ZM7.45845 29.9563H6.58909C6.43435 29.9563 6.30775 30.0801 6.30775 30.2314V31.4499H4.13577V30.2314C4.13577 30.0801 4.00916 29.9563 3.85442 29.9563H2.98507C2.83033 29.9563 2.70372 30.0801 2.70372 30.2314V31.4499H2.11853V28.5756H8.3278V31.4499H7.74261V30.2314C7.74261 30.0801 7.616 29.9563 7.46126 29.9563H7.45845ZM2.11571 15.9587H8.32499V21.9247H2.11571V15.9587ZM2.11571 22.1998H8.32499V28.3032H2.11571V22.1998ZM8.32499 15.4086H2.11571V9.58019H8.32499V15.4086ZM3.77846 4.38714H6.66224L8.21808 9.03008H2.22262L3.77846 4.38714ZM0.562689 4.31562H0.917184V31.4526H0.562689V4.31287V4.31562ZM1.19853 31.4526V4.31287H1.55302V31.4499H1.19853V31.4526ZM3.26641 31.4526V30.5092H3.57308V31.4526H3.26641ZM6.87044 31.4526V30.5092H7.1771V31.4526H6.87044ZM8.89049 15.6864V4.31287H9.24499V31.4499H8.89049V15.6837V15.6864ZM9.52633 31.4526V4.31287H9.88083V31.4499H9.52633V31.4526ZM12.8828 31.4526V30.5092H13.1894V31.4526H12.8828ZM19.3509 31.4526V30.5092H19.6576V31.4526H19.3509ZM25.8162 31.4526V30.5092H26.1229V31.4526H25.8162ZM29.1248 15.6864V4.31287H29.4793V31.4499H29.1248V15.6837V15.6864ZM29.7606 31.4526V4.31287H30.1151V31.4499H29.7606V31.4526ZM31.8285 31.4526V30.5092H32.1352V31.4526H31.8285ZM35.4325 31.4526V30.5092H35.7392V31.4526H35.4325ZM37.4526 15.6864V4.31287H37.8071V31.4499H37.4526V15.6837V15.6864ZM38.0884 31.4526V4.31287H38.4429V31.4499H38.0884V31.4526Z" fill="#AD9170"/>
<path d="M29.7579 0H29.4766V0.924188H29.7579V0Z" fill="#AD9170"/>
<path d="M38.0831 0H37.8018V0.924188H38.0831V0Z" fill="#AD9170"/>
<path d="M31.9778 14.4239H35.5818C35.7365 14.4239 35.8631 14.3001 35.8631 14.1488V13.0294C35.8631 11.9071 34.9291 10.994 33.7812 10.994C32.6333 10.994 31.6992 11.9071 31.6992 13.0294V14.1488C31.6992 14.3001 31.8258 14.4239 31.9806 14.4239H31.9778ZM35.3004 13.0294V13.8738H34.0625V11.5688C34.7659 11.6981 35.3004 12.3032 35.3004 13.0294ZM32.2591 13.0294C32.2591 12.3032 32.7936 11.6981 33.497 11.5688V13.8738H32.2591V13.0294Z" fill="#AD9170"/>
<path d="M35.5817 16.9874H31.9776C31.8229 16.9874 31.6963 17.1112 31.6963 17.2625V20.4834C31.6963 20.6347 31.8229 20.7584 31.9776 20.7584H35.5817C35.7364 20.7584 35.863 20.6347 35.863 20.4834V17.2625C35.863 17.1112 35.7364 16.9874 35.5817 16.9874ZM32.259 17.5375H33.4969V20.2083H32.259V17.5375ZM35.3003 20.2083H34.0624V17.5375H35.3003V20.2083Z" fill="#AD9170"/>
<path d="M35.5817 23.3632H31.9776C31.8229 23.3632 31.6963 23.487 31.6963 23.6383V26.8592C31.6963 27.0105 31.8229 27.1342 31.9776 27.1342H35.5817C35.7364 27.1342 35.863 27.0105 35.863 26.8592V23.6383C35.863 23.487 35.7364 23.3632 35.5817 23.3632ZM32.259 23.9133H33.4969V26.5841H32.259V23.9133ZM35.3003 26.5841H34.0624V23.9133H35.3003V26.5841Z" fill="#AD9170"/>
<path d="M32.723 6.37577C32.678 6.274 32.5092 6.274 32.4642 6.37577L31.713 8.07561C31.6933 8.11687 31.6989 8.16638 31.7243 8.20489C31.7496 8.2434 31.7946 8.26815 31.8424 8.26815H33.3448C33.3926 8.26815 33.4377 8.24615 33.463 8.20489C33.4883 8.16638 33.4939 8.11687 33.4742 8.07561L32.723 6.37577ZM32.0563 7.99309L32.5936 6.77735L33.131 7.99309H32.0591H32.0563Z" fill="#AD9170"/>
<path d="M35.8014 8.07561L35.0502 6.37577C35.0052 6.274 34.8364 6.274 34.7914 6.37577L34.0402 8.07561C34.0205 8.11687 34.0261 8.16638 34.0514 8.20489C34.0767 8.2434 34.1218 8.26815 34.1696 8.26815H35.672C35.7198 8.26815 35.7648 8.24615 35.7901 8.20489C35.8154 8.16638 35.8211 8.11687 35.8014 8.07561ZM34.3834 7.99309L34.9208 6.77735L35.4581 7.99309H34.3834Z" fill="#AD9170"/>
<path d="M11.9909 14.7348H14.0729C14.1235 14.7348 14.1685 14.71 14.1939 14.6687C14.2192 14.6275 14.2192 14.5752 14.1967 14.534L13.1557 12.6443C13.1304 12.6003 13.0825 12.5728 13.0319 12.5728C12.9813 12.5728 12.9334 12.6003 12.9081 12.6443L11.8671 14.534C11.8446 14.578 11.8446 14.6275 11.8699 14.6687C11.8953 14.71 11.9403 14.7348 11.9909 14.7348ZM13.0319 12.9964L13.8365 14.4597H12.2273L13.0319 12.9964Z" fill="#AD9170"/>
<path d="M18.4587 14.7348H20.5406C20.5913 14.7348 20.6363 14.71 20.6616 14.6687C20.6869 14.6275 20.6869 14.5752 20.6644 14.534L19.6235 12.6443C19.5981 12.6003 19.5503 12.5728 19.4997 12.5728C19.449 12.5728 19.4012 12.6003 19.3759 12.6443L18.3349 14.534C18.3124 14.578 18.3124 14.6275 18.3377 14.6687C18.363 14.71 18.4081 14.7348 18.4587 14.7348ZM19.4997 12.9964L20.3043 14.4597H18.695L19.4997 12.9964Z" fill="#AD9170"/>
<path d="M24.9274 14.7348H27.0094C27.06 14.7348 27.1051 14.71 27.1304 14.6687C27.1557 14.6275 27.1557 14.5752 27.1332 14.534L26.0922 12.6443C26.0669 12.6003 26.0191 12.5728 25.9684 12.5728C25.9178 12.5728 25.87 12.6003 25.8446 12.6443L24.8037 14.534C24.7811 14.578 24.7811 14.6275 24.8065 14.6687C24.8318 14.71 24.8768 14.7348 24.9274 14.7348ZM25.9684 12.9964L26.7731 14.4597H25.1638L25.9684 12.9964Z" fill="#AD9170"/>
</g>
<defs>
<clipPath id="clip0_1633_12053">
<rect width="39" height="32" fill="white"/>
</clipPath>
</defs>
</svg>
